<svg width="46" height="49" viewBox="0 0 46 49" fill="none" xmlns="http://www.w3.org/2000/svg">
<g clip-path="url(#clip0)">
<path d="M30.1489 45.2074C30.1367 45.2074 30.1123 45.2074 30.1001 45.2074H30.0879C29.71 45.2074 29.4053 45.5199 29.4053 45.9074C29.4053 46.0199 29.4297 46.1324 29.4906 46.2324V47.7449C29.4906 48.1324 29.7954 48.4449 30.1733 48.4449C30.5512 48.4449 30.8559 48.1324 30.8559 47.7449V45.8949C30.8559 45.7074 30.7828 45.5199 30.6487 45.3949C30.5024 45.2699 30.3317 45.1949 30.1489 45.2074Z" fill="white"/>
<path d="M19.6041 24.2448C20.7012 24.5198 21.8227 24.6573 22.9199 24.6573C24.017 24.6573 25.1385 24.5198 26.2357 24.2448C26.6014 24.1573 26.833 23.7698 26.7355 23.3948C26.6502 23.0198 26.2723 22.7823 25.9065 22.8823C24.9069 23.1323 23.9073 23.2573 22.9077 23.2573C21.9203 23.2573 20.9085 23.1323 19.9088 22.8823C19.5431 22.7948 19.1652 23.0198 19.0799 23.3948C19.0067 23.7698 19.2384 24.1573 19.6041 24.2448Z" fill="white"/>
<path d="M26.7482 34.6946C26.6629 34.3196 26.285 34.0821 25.9193 34.1821C24.9196 34.4321 23.92 34.5571 22.9204 34.5571C21.933 34.5571 20.9212 34.4321 19.9216 34.1821C19.5558 34.0946 19.1779 34.3196 19.0926 34.6946C19.0073 35.0696 19.2267 35.4571 19.5924 35.5446C20.6896 35.8196 21.8111 35.9571 22.9082 35.9571C24.0054 35.9571 25.1269 35.8196 26.224 35.5446C26.6141 35.4446 26.8336 35.0696 26.7482 34.6946Z" fill="white"/>
<path d="M24.6151 37.8821C24.0421 37.9571 23.4813 38.0071 22.9206 38.0071C22.372 38.0071 21.799 37.9696 21.2261 37.8821C20.8482 37.8321 20.5069 38.0946 20.4581 38.4821C20.4093 38.8696 20.6653 39.2196 21.0432 39.2696C21.6771 39.3571 22.311 39.4071 22.9206 39.4071C23.5423 39.4071 24.164 39.3571 24.7979 39.2696C25.1758 39.2196 25.4318 38.8571 25.383 38.4821C25.3343 38.0946 24.993 37.8321 24.6151 37.8821Z" fill="white"/>
<path d="M44.6319 37.3447C44.254 37.3447 43.9492 37.6572 43.9492 38.0447V47.7447C43.9492 48.1322 44.254 48.4447 44.6319 48.4447C45.0098 48.4447 45.3146 48.1322 45.3146 47.7447V38.0447C45.3268 37.6697 45.0098 37.3447 44.6319 37.3447Z" fill="white"/>
<path d="M42.4494 18.7324V14.6324C42.4494 11.7824 40.182 9.45743 37.4025 9.45743C34.6231 9.45743 32.3557 11.7824 32.3557 14.6324V18.7324C31.7705 19.1074 31.2707 19.5824 30.8441 20.1199V15.1324C30.8441 12.9449 29.7469 10.9199 27.9671 9.75743V5.65742C27.9671 2.83242 25.7241 0.519922 22.9812 0.482422C22.9812 0.482422 22.9812 0.482422 22.969 0.482422C22.5911 0.482422 22.2864 0.794922 22.2864 1.18242C22.2864 1.56992 22.5911 1.89492 22.969 1.89492C24.9683 1.91992 26.6018 3.60742 26.6018 5.65742V19.4574C26.6018 19.6074 26.5043 19.7574 26.3702 19.8074C24.0905 20.6449 21.7744 20.6449 19.4947 19.8074C19.3485 19.7574 19.2631 19.6199 19.2631 19.4574V8.83243C19.2631 8.44493 18.9584 8.13243 18.5805 8.13243C18.2025 8.13243 17.8978 8.44493 17.8978 8.83243V9.75743C16.118 10.9199 15.0208 12.9449 15.0208 15.1324V20.1199C14.6064 19.5824 14.0944 19.1199 13.5092 18.7324V14.6324C13.497 11.7824 11.2296 9.45743 8.45017 9.45743C5.67075 9.45743 3.40332 11.7824 3.40332 14.6324V18.7324C1.62351 19.8949 0.526367 21.9199 0.526367 24.1074V47.7574C0.526367 48.1449 0.831129 48.4574 1.20903 48.4574C1.58694 48.4574 1.8917 48.1449 1.8917 47.7574V24.1074C1.8917 22.7324 2.45246 21.4324 3.40332 20.5074V23.0074C3.40332 23.3949 3.70808 23.7074 4.08598 23.7074C4.46389 23.7074 4.76865 23.3949 4.76865 23.0074V19.1324V14.6324C4.76865 12.5574 6.41436 10.8699 8.43798 10.8699C10.4616 10.8699 12.1073 12.5574 12.1073 14.6324V28.4449C12.1073 28.5949 12.0098 28.7449 11.8757 28.7949C9.59608 29.6324 7.27989 29.6324 5.00027 28.7949C4.85398 28.7449 4.76865 28.6074 4.76865 28.4449V26.0074C4.76865 25.6199 4.46389 25.3074 4.08598 25.3074C3.70808 25.3074 3.40332 25.6199 3.40332 26.0074V28.4449C3.40332 29.1949 3.86656 29.8574 4.54922 30.1199C5.84141 30.5949 7.14579 30.8324 8.45017 30.8324C9.75455 30.8324 11.0589 30.5949 12.3511 30.1199C13.0338 29.8699 13.497 29.1949 13.497 28.4449V20.5199C14.4479 21.4449 15.0086 22.7324 15.0086 24.1199V47.7699C15.0086 48.1574 15.3134 48.4699 15.6913 48.4699C16.0692 48.4699 16.374 48.1574 16.374 47.7699V15.1449C16.374 13.7699 16.9347 12.4699 17.8856 11.5449V19.4574C17.8856 20.2074 18.3488 20.8699 19.0315 21.1324C20.3237 21.6074 21.6281 21.8449 22.9325 21.8449C24.2368 21.8449 25.5412 21.6074 26.8334 21.1324C27.5161 20.8824 27.9793 20.2074 27.9793 19.4574V11.5324C28.9302 12.4574 29.4909 13.7449 29.4909 15.1324V33.8574C29.4787 33.9074 29.4787 33.9574 29.4787 34.0074C29.4787 34.3949 29.7713 34.6949 30.1492 34.7074C30.1614 34.7074 30.1736 34.7074 30.1858 34.7074C30.5637 34.7074 30.8684 34.3949 30.8684 34.0074V24.1074C30.8684 22.7324 31.4292 21.4324 32.3801 20.5074V28.4324C32.3801 29.1824 32.8433 29.8449 33.526 30.1074C34.8182 30.5824 36.1225 30.8199 37.4269 30.8199C38.7313 30.8199 40.0357 30.5824 41.3279 30.1074C42.0105 29.8574 42.4738 29.1824 42.4738 28.4324V20.5074C43.4246 21.4324 43.9854 22.7199 43.9854 24.1074V35.0574C43.9854 35.4449 44.2902 35.7574 44.6681 35.7574C45.046 35.7574 45.3507 35.4449 45.3507 35.0574V24.1074C45.3263 21.9199 44.2292 19.8949 42.4494 18.7324ZM40.8403 28.7824C38.5606 29.6199 36.2444 29.6199 33.9648 28.7824C33.8185 28.7324 33.7332 28.5949 33.7332 28.4324V19.1324V14.6324C33.7332 12.5574 35.3789 10.8699 37.4025 10.8699C39.4262 10.8699 41.0719 12.5574 41.0719 14.6324V28.4449C41.0719 28.5949 40.9743 28.7324 40.8403 28.7824Z" fill="white"/>
<path d="M40.389 31.8567C39.3894 32.1067 38.3898 32.2317 37.3901 32.2317C36.4027 32.2317 35.3909 32.1067 34.3913 31.8567C34.0256 31.7692 33.6477 31.9942 33.5623 32.3692C33.477 32.7442 33.6964 33.1317 34.0621 33.2192C35.1593 33.4942 36.2808 33.6317 37.3779 33.6317C38.4751 33.6317 39.5966 33.4942 40.6938 33.2192C41.0595 33.1317 41.2911 32.7442 41.1936 32.3692C41.1326 31.9942 40.7669 31.7692 40.389 31.8567Z" fill="white"/>
<path d="M40.389 43.1448C39.3894 43.3948 38.3898 43.5198 37.3901 43.5198C36.4027 43.5198 35.3909 43.3948 34.3913 43.1448C34.0256 43.0573 33.6477 43.2823 33.5623 43.6573C33.477 44.0323 33.6964 44.4198 34.0621 44.5073C35.1593 44.7823 36.2808 44.9198 37.3779 44.9198C38.4751 44.9198 39.5966 44.7823 40.6938 44.5073C41.0595 44.4198 41.2911 44.0323 41.1936 43.6573C41.1326 43.2948 40.7669 43.0573 40.389 43.1448Z" fill="white"/>
<path d="M11.4486 31.8567C10.4489 32.1067 9.44933 32.2317 8.44971 32.2317C7.46228 32.2317 6.45047 32.1067 5.45085 31.8567C5.08513 31.7692 4.70723 31.9942 4.6219 32.3692C4.53656 32.7442 4.75599 33.1317 5.12171 33.2192C6.21885 33.4942 7.34037 33.6317 8.43752 33.6317C9.53466 33.6317 10.6562 33.4942 11.7655 33.2192C12.1312 33.1317 12.3629 32.7442 12.2653 32.3692C12.18 31.9942 11.8143 31.7692 11.4486 31.8567Z" fill="white"/>
<path d="M11.4486 43.1448C10.4489 43.3948 9.44933 43.5198 8.44971 43.5198C7.46228 43.5198 6.45047 43.3948 5.45085 43.1448C5.08513 43.0573 4.70723 43.2823 4.6219 43.6573C4.53656 44.0323 4.75599 44.4198 5.12171 44.5073C6.21885 44.7823 7.34037 44.9198 8.43752 44.9198C9.53466 44.9198 10.6562 44.7823 11.7533 44.5073C12.119 44.4198 12.3507 44.0323 12.2531 43.6573C12.18 43.2948 11.8143 43.0573 11.4486 43.1448Z" fill="white"/>
<path d="M10.1444 46.8577C9.5714 46.9327 9.01063 46.9827 8.44987 46.9827C7.9013 46.9827 7.32835 46.9452 6.75539 46.8577C6.37749 46.8077 6.03616 47.0702 5.98739 47.4577C5.93863 47.8452 6.19463 48.1952 6.57254 48.2452C7.20644 48.3327 7.84035 48.3827 8.44987 48.3827C9.07159 48.3827 9.6933 48.3327 10.3272 48.2452C10.7051 48.1952 10.9611 47.8327 10.9124 47.4577C10.8636 47.0702 10.5223 46.8077 10.1444 46.8577Z" fill="white"/>
<path d="M33.9764 40.0193C34.0008 39.5568 33.757 39.1443 33.3547 38.9443C32.3672 38.4318 31.6358 37.7068 31.1482 36.7443C30.941 36.3318 30.5265 36.0943 30.0876 36.1318C29.6488 36.1568 29.2709 36.4443 29.1124 36.8693C28.7589 37.8193 28.0762 38.5068 27.04 38.9568C26.6255 39.1443 26.3573 39.5568 26.3695 40.0193C26.3695 40.4818 26.6499 40.9068 27.0766 41.0818C28.0274 41.4818 28.6857 42.1318 29.0636 43.0943C29.2343 43.5193 29.6366 43.8068 30.0754 43.8193C30.0876 43.8193 30.0876 43.8193 30.0998 43.8193C30.5387 43.8193 30.941 43.5568 31.1238 43.1443C31.5627 42.1568 32.2819 41.4693 33.2937 41.0443C33.6838 40.8568 33.952 40.4693 33.9764 40.0193ZM30.0998 42.0693C29.6366 41.1693 28.9539 40.4693 28.064 39.9943C29.0149 39.4693 29.7341 38.7443 30.1852 37.8318C30.7215 38.6943 31.4286 39.4068 32.3063 39.9443C31.3554 40.4318 30.6118 41.1443 30.0998 42.0693Z" fill="white"/>
<path d="M16.4347 4.60716C17.1417 4.89466 17.6172 5.38216 17.8854 6.08216C18.0438 6.46966 18.3974 6.73216 18.8118 6.74466C18.824 6.74466 18.824 6.74466 18.8362 6.74466C19.2385 6.74466 19.6042 6.50716 19.7749 6.13216C20.104 5.40716 20.6282 4.89466 21.3718 4.58216C21.7497 4.43216 21.9935 4.06966 22.0179 3.65716C22.0301 3.24466 21.8107 2.85716 21.4572 2.66966C20.7135 2.28216 20.1772 1.74466 19.8114 1.03216C19.6286 0.669663 19.2385 0.444663 18.8362 0.469663C18.4339 0.494663 18.0926 0.757163 17.9463 1.14466C17.6903 1.84466 17.1905 2.34466 16.4225 2.68216C16.0446 2.84466 15.8008 3.23216 15.8008 3.65716C15.8008 4.06966 16.0446 4.44466 16.4347 4.60716ZM18.9337 2.24466C19.2873 2.76966 19.7383 3.20716 20.2625 3.56966C19.6895 3.90716 19.2263 4.35716 18.8606 4.91966C18.5436 4.38216 18.117 3.94466 17.5806 3.61966C18.1535 3.26966 18.6046 2.80716 18.9337 2.24466Z" fill="white"/>
</g>
<defs>
<clipPath id="clip0">
<rect width="44.8" height="48" fill="white" transform="translate(0.526367 0.457031)"/>
</clipPath>
</defs>
</svg>
