<svg width="44" height="49" viewBox="0 0 44 49" fill="none" xmlns="http://www.w3.org/2000/svg">
<path d="M40.3237 0.457031C38.2974 0.457031 36.6562 2.26554 36.6562 4.49839V48.1451C36.6562 48.5897 36.9863 48.9534 37.3897 48.9534C41.0297 48.9534 43.9911 45.69 43.9911 41.6789V33.5962C43.9911 32.5657 43.4043 31.6563 42.5241 31.3128V29.5548H43.2576C43.661 29.5548 43.9911 29.1911 43.9911 28.7466V4.49839C43.9819 2.26554 42.3499 0.457031 40.3237 0.457031ZM40.3237 2.07358C41.5431 2.07358 42.5241 3.15464 42.5241 4.49839V18.239H40.3237C39.9203 18.239 39.5902 18.6027 39.5902 19.0473C39.5902 19.4918 39.9203 19.8556 40.3237 19.8556H42.5241V21.4721H38.1232V4.49839C38.1232 3.15464 39.1043 2.07358 40.3237 2.07358ZM42.5241 24.7052H38.1232V23.0887H42.5241V24.7052ZM41.7906 32.7879C42.1941 32.7879 42.5241 33.1517 42.5241 33.5962V41.6789C42.5241 44.4877 40.6446 46.8721 38.1232 47.2762V29.5548H41.0572V31.9797C41.0572 32.4242 41.3872 32.7879 41.7906 32.7879ZM41.7906 27.9383H38.1232V26.3218H42.5241V27.9383H41.7906Z" fill="white"/>
<path d="M40.3243 36.0215C39.9209 36.0215 39.5908 36.3852 39.5908 36.8298V41.6794C39.5908 42.1239 39.9209 42.4877 40.3243 42.4877C40.7277 42.4877 41.0578 42.1239 41.0578 41.6794V36.8298C41.0578 36.3852 40.7277 36.0215 40.3243 36.0215Z" fill="white"/>
<path d="M26.8829 37.7084C26.2961 37.7994 25.7368 38.0115 25.2234 38.3146L18.4294 17.7542C18.6678 17.6633 18.8787 17.4915 19.0346 17.2793C19.1538 17.1884 19.2454 17.0571 19.2913 16.9055L22.2252 8.01452C23.1879 5.07443 21.8218 1.83124 19.1538 0.76028C18.9704 0.689556 18.7687 0.699659 18.5945 0.79059C18.4203 0.881521 18.2827 1.04318 18.2186 1.24524L16.3757 6.82232L14.5328 1.25535C14.4686 1.05328 14.3311 0.891624 14.1569 0.800693C13.9827 0.709763 13.781 0.699659 13.5976 0.770383C10.9387 1.84134 9.56342 5.08454 10.5261 8.02463L14.0377 18.6433L7.54634 38.3146C7.0329 38.0014 6.46445 37.7994 5.88682 37.7084C3.23711 37.274 0.724916 39.1633 0.128958 42.0529C-0.466999 44.9324 1.05498 47.832 3.61302 48.711C4.08978 48.8727 4.58489 48.9535 5.07999 48.9535C7.29879 48.9232 9.27003 47.3673 10.0035 45.0536L11.6997 39.911L13.7718 40.7395C14.1477 40.8809 14.5603 40.6687 14.6978 40.2545C14.8354 39.8402 14.6428 39.3856 14.2761 39.2239L12.204 38.3955L16.3848 25.7258L20.5657 38.3955L18.5028 39.2239C18.136 39.3856 17.9435 39.8402 18.081 40.2545C18.2186 40.6687 18.622 40.8809 19.0071 40.7496L21.0792 39.9211L22.7753 45.0637C23.5088 47.3774 25.4801 48.9333 27.708 48.9636C28.2031 48.9636 28.6982 48.8828 29.175 48.7211C31.733 47.8421 33.255 44.9425 32.6591 42.063C32.0448 39.1734 29.5326 37.274 26.8829 37.7084ZM19.328 2.63951C20.8133 3.64985 21.4459 5.66043 20.8591 7.46894L18.732 13.925L17.1733 9.19662L19.328 2.63951ZM8.61906 44.508C7.95892 46.5792 5.96017 47.7411 4.03477 47.1652C2.20106 46.5388 1.11916 44.4676 1.54092 42.4065C1.96267 40.3454 3.75971 38.9916 5.65761 39.3048C6.31775 39.4159 6.93204 39.719 7.43631 40.1838C7.61969 40.3555 7.86724 40.406 8.09645 40.3454C8.32567 40.2747 8.50904 40.0928 8.59155 39.8402L14.8078 21.0075L15.5872 23.3717L8.61906 44.508ZM31.0179 44.9021C30.5961 45.9932 29.7526 46.8217 28.7257 47.1753C26.8003 47.7512 24.8016 46.5893 24.1415 44.5181L22.1977 38.6278V38.6177V38.6076L11.9106 7.46894C11.3146 5.66043 11.9564 3.64985 13.4417 2.63951L17.9343 16.2387C17.1733 16.5418 16.7791 17.4713 17.0542 18.3099L24.169 39.8402C24.2515 40.0827 24.4349 40.2747 24.6641 40.3454C24.8933 40.4161 25.1408 40.3555 25.3242 40.1939C25.8376 39.7291 26.4519 39.426 27.1029 39.3149C28.414 39.0926 29.7343 39.6786 30.5503 40.8405C31.3663 41.9923 31.5405 43.5482 31.0179 44.9021Z" fill="white"/>
<path d="M28.7721 41.9926C28.387 42.1441 28.1945 42.6089 28.332 43.0231C28.4695 43.4474 28.277 43.9021 27.8919 44.0638C27.5068 44.2153 27.0942 44.0031 26.9475 43.5788C26.8834 43.3767 26.8925 43.1545 26.975 42.9625C27.0576 42.7705 27.2043 42.619 27.3876 42.5482C27.6352 42.4573 27.8277 42.2148 27.8736 41.9319C27.9194 41.649 27.8277 41.3459 27.6168 41.1641C27.4151 40.9822 27.1309 40.9317 26.8834 41.0327C25.7373 41.4874 25.1505 42.8817 25.5722 44.1446C25.9848 45.4075 27.2501 46.0541 28.3962 45.5894C29.5422 45.1347 30.129 43.7404 29.7073 42.4775C29.5789 42.0532 29.1572 41.841 28.7721 41.9926Z" fill="white"/>
<path d="M6.74882 43.0936C6.56544 43.0229 6.36374 43.033 6.18953 43.1239C6.01533 43.2149 5.8778 43.3765 5.81362 43.5786C5.67609 44.0029 5.25434 44.2151 4.87843 44.0635C4.49335 43.912 4.30081 43.4472 4.43834 43.0229C4.57586 42.5985 4.99762 42.3864 5.3827 42.5379C5.63025 42.639 5.90531 42.5884 6.10702 42.3965C6.30872 42.2146 6.40041 41.9216 6.35457 41.6387C6.30872 41.3558 6.12535 41.1133 5.8778 41.0224C4.73173 40.5678 3.47563 41.2144 3.05388 42.4672C2.64129 43.7301 3.22808 45.1143 4.36499 45.5791C5.51106 46.0337 6.76715 45.3871 7.18891 44.1343C7.25309 43.9322 7.24392 43.7099 7.17057 43.518C7.07888 43.3159 6.93219 43.1744 6.74882 43.0936Z" fill="white"/>
</svg>
