<svg width="40" height="44" viewBox="0 0 40 44" fill="none" xmlns="http://www.w3.org/2000/svg">
<g clip-path="url(#clip0)">
<path d="M39.1948 36.7203C38.5854 36.8697 38.3823 36.6643 38.3198 36.5896C37.5698 35.8239 37.6948 32.6584 37.8432 28.9981C37.9136 27.1679 37.9995 25.0949 37.9995 22.8819C37.9995 14.2539 33.4136 0.957031 27.3276 0.957031C23.062 0.957031 20.8198 1.98418 19.9917 2.46973C19.1714 1.98418 16.9292 0.957031 12.6635 0.957031C6.5776 0.957031 1.99948 14.2539 1.99948 22.8726C1.99948 25.0949 2.0776 27.1586 2.15573 28.9887C2.29635 32.6584 2.42135 35.8239 1.67916 36.5803C1.60885 36.6456 1.41354 36.8511 0.804164 36.711C0.608852 36.6643 0.405727 36.7203 0.249477 36.8697C0.0932264 37.0191 -0.000523597 37.2526 0.00728891 37.4954C0.0776014 39.3722 0.827602 41.1184 2.06198 42.2762C4.0776 44.1438 7.24948 44.4333 11.4995 43.1447C11.7339 43.07 11.9135 42.8645 11.976 42.5844C12.0385 42.3136 11.976 42.0148 11.812 41.8094C11.7651 41.7533 7.50729 36.4029 7.34323 22.1162C9.70261 22.331 16.9448 22.5738 21.312 18.2131C22.4214 17.1206 23.2964 15.7292 23.8667 14.1605C24.3042 16.6257 25.4526 18.8387 27.1011 20.4074C28.7182 21.7894 30.6948 22.4057 32.6636 22.1629C32.4839 36.3281 28.2339 41.7533 28.1948 41.8094C28.0307 42.0148 27.9604 42.3043 28.0307 42.5844C28.0932 42.8552 28.2807 43.07 28.5073 43.1447C30.0307 43.6395 31.5932 43.9103 33.1714 43.9384C34.8745 44.0411 36.5542 43.4528 37.9448 42.2762C39.1792 41.1184 39.9292 39.3722 39.9995 37.4954C39.9995 37.2526 39.9057 37.0285 39.7573 36.8791C39.6011 36.739 39.3979 36.6736 39.1948 36.7203ZM37.1245 41.025C35.6245 42.4163 33.1245 42.7058 29.8432 41.8841C31.1948 39.587 33.9995 33.3494 33.9995 21.2571C33.9995 21.0144 33.9057 20.7809 33.7495 20.6315C33.5932 20.4821 33.3823 20.4261 33.187 20.4821C31.3432 20.893 29.4292 20.4074 27.8823 19.1375C25.9604 17.4194 24.8823 14.2912 24.6714 9.83716C24.6714 9.39829 24.3745 9.04346 24.0073 9.04346C23.6401 9.04346 23.3432 9.39829 23.3432 9.83716C23.2885 12.6105 22.2417 15.2157 20.4682 16.9992C15.7417 21.7053 6.83542 20.4728 6.74167 20.4634C6.55417 20.4354 6.35885 20.5101 6.21823 20.6595C6.0776 20.8089 5.99167 21.0237 5.99167 21.2571C5.99167 33.3588 8.80417 39.5963 10.1479 41.8841C6.88229 42.7058 4.38229 42.4163 2.88229 41.0437C2.15573 40.3714 1.6401 39.4189 1.42916 38.3544C1.83541 38.3171 2.22604 38.121 2.53073 37.8035C3.77292 36.5336 3.65573 33.5082 3.47604 28.9234C3.40573 27.1119 3.3276 25.0576 3.3276 22.8726C3.3276 14.1885 7.94479 2.54444 12.6635 2.54444C17.6635 2.54444 19.6089 4.01979 19.6245 4.02913C19.851 4.21588 20.1479 4.21588 20.3745 4.02913C20.3901 4.01045 22.3432 2.54444 27.3354 2.54444C32.0542 2.54444 36.6714 14.1792 36.6714 22.8726C36.6714 25.0576 36.5932 27.1025 36.5229 28.914C36.3432 33.4988 36.2261 36.5242 37.4682 37.7942C37.7807 38.1116 38.1636 38.2984 38.5698 38.3451C38.3432 39.4096 37.8432 40.3527 37.1245 41.025Z" fill="white"/>
<path d="M18.6017 7.33421C18.2345 7.3809 17.9689 7.76374 18.008 8.20261C18.0158 9.42585 17.633 10.6117 16.9298 11.5081C15.3673 13.6838 12.2736 14.9911 7.9689 15.2899C7.60172 15.2992 7.31265 15.6728 7.32047 16.1116C7.32828 16.5505 7.64078 16.896 8.00797 16.8867H8.04703C12.8205 16.5505 16.1642 15.0751 17.9767 12.4979C18.8986 11.2747 19.383 9.67796 19.3361 8.03453C19.3205 7.8291 19.2267 7.63301 19.0939 7.50228C18.9455 7.38089 18.7736 7.31553 18.6017 7.33421Z" fill="white"/>
</g>
<defs>
<clipPath id="clip0">
<rect width="40" height="43" fill="white" transform="translate(0 0.957031)"/>
</clipPath>
</defs>
</svg>
