<svg width="38" height="49" viewBox="0 0 38 49" fill="none" xmlns="http://www.w3.org/2000/svg">
<g clip-path="url(#clip0)">
<path d="M34.8586 48.3554C34.4612 47.9869 34.6279 47.4531 34.4612 47.021C34.1791 45.1274 33.7176 43.272 32.974 41.4928C32.8715 41.0861 32.692 40.7176 32.4868 40.349C32.1791 39.5738 31.7561 38.8494 31.2689 38.1632C31.192 38.0488 31.1407 37.9217 30.974 37.8709C30.1279 37.6294 29.2817 37.3626 28.333 37.083C29.2689 38.7351 29.9612 40.3745 30.5509 42.0647C30.7048 42.5476 30.8586 43.0178 31.0125 43.5008C31.2561 44.6572 31.5766 45.801 31.7433 46.9702C31.7689 47.1862 31.8074 47.4023 31.8458 47.631C31.9099 48.0504 31.7176 48.3681 31.3586 48.4317C31.0253 48.4952 30.7176 48.2283 30.6663 47.8089C30.5766 47.0464 30.4227 46.2839 30.2689 45.5214C30.2048 45.2291 30.1279 44.9368 30.0638 44.6445C29.9356 44.1616 29.7945 43.6787 29.6663 43.1958C29.474 42.4714 29.474 42.4841 28.7561 42.6747C28.0253 42.8653 27.2817 43.0433 26.5381 43.1958C26.2817 43.2466 26.2304 43.2974 26.2945 43.5516C26.474 44.3141 26.6022 45.0893 26.7433 45.8645C26.7048 46.2204 26.5125 46.411 26.1407 46.4491C25.7945 46.411 25.615 46.2204 25.5509 45.8772C25.4356 45.2291 25.2817 44.5937 25.1791 43.9456C25.115 43.5897 24.9997 43.4245 24.5638 43.488C23.7433 43.6024 22.9227 43.6533 22.1022 43.7168C21.5894 43.7295 21.0766 43.7676 20.5638 43.7676C20.3202 43.7676 20.2689 43.8566 20.2817 44.0726C20.3074 44.5429 20.2945 45.0258 20.3074 45.496C20.2945 45.6739 20.2945 45.8391 20.2817 46.017C20.2689 46.7033 19.9484 46.9066 19.2945 46.6398C19.192 46.4873 19.1022 46.3348 19.1022 46.1314C19.115 45.7883 19.0894 45.4579 19.0894 45.1147C19.0894 44.7716 19.0894 44.4158 19.115 44.0726C19.1279 43.8566 19.0766 43.7676 18.833 43.7676C17.4612 43.7549 16.0894 43.666 14.7304 43.488C14.3971 43.4499 14.2945 43.577 14.2304 43.8566C14.1022 44.5047 13.9484 45.1529 13.8458 45.801C13.7817 46.195 13.6279 46.4745 13.1792 46.4364C12.7176 46.3983 12.6279 46.0679 12.6663 45.6866C12.6663 45.6612 12.6535 45.6231 12.6535 45.5977C12.6535 45.5722 12.6535 45.5214 12.6407 45.5214C12.5766 45.5087 12.5894 45.5595 12.5894 45.5977C12.0894 47.2752 10.7433 48.3173 8.87146 48.3935C7.66633 48.4317 6.44838 48.3808 5.25607 48.0758C4.37146 47.8471 3.55095 47.4658 2.80736 46.9193C2.64069 47.1989 2.64069 47.4785 2.57659 47.7454C2.4612 48.2537 2.19197 48.5079 1.833 48.4444C1.44838 48.3681 1.30736 48.0504 1.40992 47.5039C1.42274 47.4404 1.40992 47.3769 1.40992 47.3133C1.55095 46.6525 2.05095 45.9662 1.23043 45.3943C0.0124855 43.7931 -0.154181 41.9757 0.102229 40.0822C0.281716 39.2561 0.448383 38.4428 0.62787 37.6167C1.12787 36.0917 1.64069 34.5667 2.38428 33.1433C2.97402 32.0123 3.64069 30.9193 4.21761 29.7883C4.78172 28.6954 5.15351 27.5262 5.333 26.3062C5.49966 25.6199 5.62787 24.9209 5.61505 24.2093C5.82018 23.1672 5.75607 22.0997 5.70479 21.0448C5.65351 19.8502 5.61505 18.6556 5.61505 17.4611C5.67915 16.8002 5.74325 16.1267 5.80736 15.4658C6.23043 12.9622 6.90992 10.5349 8.01249 8.24739C9.9612 4.18067 13.1663 1.57543 17.6407 0.685835C20.8715 0.0377019 23.833 0.889171 26.5509 2.68107C26.6792 2.77003 26.8202 2.84628 26.9612 2.93524C27.3202 3.21483 27.6791 3.50712 28.0381 3.78671C29.2433 4.87964 30.2817 6.11236 31.192 7.45946C31.3843 7.78988 31.5766 8.12031 31.7689 8.45073C32.5125 10.1155 32.9227 11.882 33.2433 13.6739C33.333 14.2077 33.4227 14.7541 33.5125 15.2879C33.5125 15.4658 33.4997 15.631 33.5253 15.8089C33.7817 17.8169 33.7817 19.8375 33.6535 21.8582C33.6022 22.519 33.5509 23.1799 33.4997 23.8407C33.2561 25.4166 32.9997 27.0051 32.7561 28.581C32.6022 29.5595 32.5125 30.5508 32.5894 31.5421C32.6407 32.0504 32.6407 32.5842 32.8586 33.0671C32.9356 33.7406 33.2689 34.3125 33.5894 34.8844C34.115 35.7994 34.692 36.689 35.1279 37.6421C35.2817 38.0869 35.4484 38.519 35.6022 38.9638C35.8202 39.7899 35.9997 40.6159 36.0766 41.4547C36.1279 42.0393 36.4997 42.4968 36.692 43.0305C36.8202 43.4118 36.974 43.7931 37.1022 44.187C37.2433 44.6699 37.3971 45.1402 37.5381 45.6231C37.692 46.2966 37.8202 46.9702 37.9868 47.6437C38.0894 48.0377 37.9484 48.3173 37.5894 48.4317C37.192 48.546 36.9484 48.33 36.8586 47.9487C36.7689 47.5802 36.6791 47.2116 36.5894 46.8558C36.4612 46.2966 36.3586 45.7375 36.1407 45.2037C35.7561 43.666 35.1663 42.2299 34.1407 40.9845C34.6791 42.5349 35.1407 44.0981 35.474 45.6993C35.5638 46.2331 35.6663 46.7796 35.7561 47.3133C35.7561 47.4023 35.7561 47.5039 35.7689 47.5929C35.8458 48.2664 35.4997 48.5587 34.8586 48.3554ZM26.474 13.9408C26.3843 13.4325 26.3074 12.9241 26.2176 12.4158C26.2176 11.8566 26.0766 11.3228 25.8971 10.8018C25.7433 10.3697 25.4868 9.98845 25.0638 9.81053C24.3586 9.53095 23.8074 9.07344 23.3202 8.52698C22.9997 8.13301 22.6022 7.82801 22.1535 7.58655C20.5894 6.56987 18.6407 6.74779 17.1407 8.12031C15.3074 9.78512 14.4356 11.9837 13.8971 14.3221C13.833 14.5762 13.9356 14.6652 14.192 14.6143C14.5766 14.5508 14.9612 14.5889 15.3458 14.6016C15.8458 14.6271 16.3074 14.7923 16.7817 14.9194C17.0381 15.0719 17.2689 15.2371 17.1535 15.5802C17.0253 15.936 16.7304 15.8852 16.4356 15.8598C16.2048 15.8344 15.9612 15.8217 15.7304 15.7962C15.1407 15.7708 14.5509 15.7581 13.9612 15.72C13.7176 15.7073 13.6663 15.8344 13.6407 16.025C13.6022 16.4571 13.5766 16.8892 13.5381 17.3213C13.8971 17.2831 14.2304 17.2577 14.5638 17.2196C15.2561 17.3085 15.8971 17.5119 16.3843 18.0583C16.5381 18.2236 16.615 18.4015 16.4868 18.6048C16.333 18.8336 16.1407 18.8463 15.8971 18.7573C15.7304 18.6938 15.5766 18.5286 15.3586 18.6429C15.5894 19.4944 15.474 20.1298 15.0125 20.4094C14.6279 20.6255 14.2433 20.6128 13.8971 20.3205C13.5125 19.99 13.4484 19.2148 13.7561 18.554C13.4997 18.4904 13.4099 18.5794 13.3971 18.8336C13.3715 19.38 13.2561 19.9265 13.1535 20.473C12.9356 21.6167 12.4227 22.6588 12.0125 23.7263C11.6663 24.6032 11.615 25.4293 12.2304 26.2045C12.3971 26.6112 12.6279 26.967 12.9099 27.3101C13.833 28.6318 15.0638 29.6358 16.474 30.4237C16.8971 30.716 17.3586 30.9066 17.833 31.0718C18.9868 31.631 20.1407 31.631 21.333 31.1481C26.2304 29.1783 28.2304 25.4674 28.6022 20.4348C28.7048 19.7613 28.8202 19.1004 28.6022 18.4269C27.9484 17.6898 27.3715 16.9019 27.0381 15.9742C26.974 15.7835 26.8458 15.7708 26.6792 15.7581C25.9099 15.72 25.1535 15.7327 24.3843 15.7835C23.7304 15.6946 23.1022 15.9106 22.4612 15.8852C22.0125 15.4785 22.0638 15.1735 22.615 14.9448C23.0638 14.7668 23.5253 14.6652 23.9997 14.6143C24.5766 14.5889 25.1407 14.6016 25.7176 14.6906C26.6407 14.8304 26.6407 14.8304 26.474 13.9408ZM30.9356 17.8804C31.615 18.2109 32.1791 18.6684 32.5381 19.5198C32.5894 18.4396 32.4997 17.5119 32.4099 16.5842C32.3458 16.0377 32.2945 15.5039 32.2304 14.9575C32.1407 14.3983 32.0894 13.8391 31.974 13.28C31.7048 11.9456 31.4484 10.5985 30.8586 9.35303C30.7304 8.95907 30.5253 8.61594 30.2817 8.29822C29.4484 6.86216 28.3971 5.61673 27.0894 4.57464C26.7689 4.24421 26.4099 3.97734 26.0253 3.74858C24.5766 2.71919 22.9868 2.03294 21.2176 1.75335C20.6407 1.63897 20.0638 1.60085 19.4868 1.65168C17.2945 1.65168 15.3458 2.41419 13.5381 3.57066C9.8971 5.92174 8.38428 9.55637 7.43556 13.5341C7.21761 14.2839 7.06377 15.0337 6.99966 15.8089C6.9612 16.0377 6.92274 16.2792 6.88428 16.5079C6.65351 18.5286 6.92274 20.5492 6.9612 22.5572C6.90992 23.218 6.87146 23.8916 6.82018 24.5524C6.53813 27.361 5.67915 29.9662 4.12787 32.3554C3.53813 33.2704 3.08941 34.2617 2.69197 35.2911C2.333 36.1934 1.9612 37.0957 1.78172 38.0615C1.30736 39.4595 1.07659 40.8828 1.21761 42.3443C1.29454 43.1449 1.56377 43.9074 2.11505 44.5429C2.35864 44.886 2.62787 45.2291 2.97402 45.4833C3.02531 45.5468 3.07659 45.6104 3.12787 45.6612C4.61505 46.9575 6.42274 47.2116 8.30736 47.1735C8.56377 47.1735 8.82018 47.2116 9.07659 47.1862C11.0638 46.9575 11.9099 45.1402 11.3074 44.0345C10.6663 42.0774 10.3074 40.1076 10.7433 38.0615C10.974 37.1973 11.333 36.384 11.4997 35.4944C11.692 35.0877 11.7304 34.6429 11.7817 34.2108C11.974 32.4952 11.4356 30.9066 10.8971 29.3181C10.7689 28.8352 10.6407 28.3649 10.5125 27.882C10.1279 25.658 10.6663 23.5865 11.5894 21.5659C11.8715 20.9559 12.0381 20.295 12.0766 19.6088C12.2433 18.9607 12.2817 18.2871 12.2817 17.6136C12.3074 17.4865 12.3458 17.3721 12.3586 17.245C12.4227 16.1648 12.5253 15.0973 12.7561 14.0425C13.2433 11.7549 14.115 9.63262 15.692 7.85343C16.8971 6.48091 18.3971 5.65486 20.2945 5.7184C21.333 5.75653 22.2433 6.1632 23.1022 6.67154C23.4612 6.98925 23.8202 7.29425 24.1792 7.61197C24.5125 8.05676 24.9099 8.42531 25.4484 8.64135C26.0253 8.87011 26.4484 9.28949 26.7689 9.82324C26.9997 10.2045 27.0894 10.6366 27.2561 11.0433C27.3458 11.5897 27.4356 12.1235 27.5253 12.6699C27.5638 13.0131 27.5894 13.3562 27.6535 13.6993C27.9099 15.1354 28.3971 16.4571 29.4868 17.5119C29.9356 17.7661 30.474 17.6771 30.9356 17.8804ZM12.8586 35.8884C14.115 35.4309 15.0638 34.6811 15.4227 33.3467C15.6535 32.7748 15.6407 32.1648 15.7176 31.5802C15.7304 31.4277 15.7176 31.2879 15.5253 31.2498C14.1535 30.3602 12.9484 29.2927 11.833 28.0981C12.0509 29.0639 12.3458 29.9662 12.6022 30.8812C12.8715 31.8089 13.0125 32.7621 13.0253 33.7279C12.9612 34.4523 12.8586 35.164 12.692 35.863C12.692 35.9011 12.692 35.9392 12.6792 35.9773C12.692 35.9519 12.7176 35.9392 12.7304 35.9138C12.7817 35.9011 12.8202 35.8884 12.8586 35.8884ZM29.833 36.3205C30.2945 36.473 30.7689 36.6255 31.2304 36.7653C31.5638 36.8669 31.8843 36.994 32.0509 37.299C32.4356 38.0361 33.0894 38.4682 33.7817 38.8622C33.9612 39.0274 34.1407 39.1926 34.3586 39.3832C34.3971 39.0655 34.3074 38.8622 34.1791 38.6715C34.1279 38.5063 34.0894 38.3411 34.0253 38.1886C33.4612 36.778 32.4868 35.5834 31.8971 34.1981C31.7689 33.7533 31.6279 33.3213 31.4997 32.8765C31.4997 32.7875 31.4997 32.6858 31.4868 32.5969C31.2945 31.1481 31.3843 29.712 31.5638 28.2633C31.6791 27.3864 31.9227 26.5349 31.9612 25.658C32.1791 24.6541 32.2817 23.6247 32.3202 22.5826C31.9356 23.218 31.4868 23.7645 30.9227 24.2347C30.8458 24.2982 30.8202 24.3618 30.833 24.4761C30.9356 25.658 30.4484 26.2045 29.2689 26.2426C29.0894 26.1791 28.8971 26.1282 28.7433 26.0266C28.5638 25.9122 28.5125 25.9757 28.4484 26.1282C28.1535 26.8399 27.7304 27.4881 27.3074 28.1362C26.615 29.0131 25.7817 29.7502 24.9356 30.4746C24.615 30.6906 24.2945 30.9321 23.9612 31.1227C23.6535 31.2879 23.5253 31.5039 23.6279 31.8344C23.692 32.3427 23.6791 32.8765 23.8971 33.3594C23.8971 33.4102 23.8971 33.461 23.9099 33.4992C24.3586 34.8844 25.4484 35.5707 26.7433 36.0409C27.115 36.1807 27.4612 36.3586 27.8458 36.0409C27.974 35.9392 28.2176 35.9519 28.3971 35.9138C28.8843 36.0282 29.3586 36.1807 29.833 36.3205ZM27.6407 38.3792C27.5638 38.214 27.4868 38.0361 27.3843 37.8836C27.2433 37.6421 27.1791 37.299 26.7817 37.3117C26.6279 37.2482 26.474 37.1719 26.3074 37.1084C24.8458 36.5746 23.6279 35.7613 22.9484 34.3125C22.8202 33.8931 22.692 33.4738 22.5509 33.0417C22.5125 32.6858 22.474 32.3173 22.4227 31.8852C20.5638 32.8892 18.7304 32.8892 16.8843 31.8852C16.8586 32.0504 16.8458 32.1394 16.833 32.2283C16.692 33.3213 16.4484 34.3633 15.7433 35.2657C14.9356 36.3077 13.7945 36.8161 12.5894 37.2228C12.2817 37.3244 12.1279 37.4896 12.0381 37.7819C11.7176 38.8622 11.6663 39.9678 11.7689 41.0734C11.833 41.8359 11.8586 41.8359 12.6279 41.9757C12.9099 42.0266 13.192 42.0647 13.474 42.1028C13.9099 42.2426 14.3586 42.268 14.8074 42.3062C17.0766 42.6366 19.3715 42.6493 21.6535 42.5349C22.333 42.5857 23.0125 42.4587 23.6791 42.3951C25.3715 42.268 27.0125 41.9503 28.6407 41.4801C28.7689 41.442 29.0509 41.4928 28.9099 41.137C28.5509 40.2093 28.1792 39.2561 27.6407 38.3792ZM29.8458 20.0536C29.9227 20.0536 29.974 20.0536 30.0253 20.0536C30.5381 20.0282 30.8843 20.2315 30.8843 20.6C30.8843 21.0576 30.5894 21.2228 30.1663 21.2482C29.833 21.2609 29.7176 21.4896 29.6663 21.7819C29.6022 22.1886 29.5894 22.608 29.4484 22.9892C29.2817 23.4722 29.5766 23.4213 29.8586 23.4595C30.0253 23.4849 30.1279 23.3705 30.2304 23.2815C30.974 22.6715 31.4227 21.8836 31.5638 20.9432C31.692 20.1298 31.192 19.2529 30.474 18.9734C29.974 18.77 29.9227 18.7954 29.8843 19.3419C29.8715 19.5834 29.8586 19.8121 29.8458 20.0536ZM12.2689 43.183C12.6022 43.882 12.7048 44.6064 12.6663 45.3562C12.7945 44.8987 12.8715 44.4412 12.974 43.9837C13.1407 43.2212 13.1535 43.2212 12.3715 43.1322C12.3458 43.1322 12.333 43.1449 12.2689 43.183ZM29.4868 25.0607C29.6279 25.048 29.7176 24.9464 29.7304 24.8193C29.7304 24.6668 29.6407 24.5651 29.4612 24.5651C29.2945 24.5651 29.2433 24.6795 29.2433 24.8066C29.2561 24.9591 29.333 25.048 29.4868 25.0607Z" fill="white"/>
<path d="M25.4224 18.503C25.7173 18.9224 25.6532 19.3545 25.6147 19.7739C25.5763 20.1805 25.1788 20.4983 24.7558 20.511C24.2814 20.5364 23.9224 20.2695 23.7942 19.8247C23.6788 19.3799 23.7429 18.9605 23.9096 18.5284C23.7173 18.5157 23.6147 18.6174 23.5122 18.6937C23.2942 18.8207 23.0891 18.8462 22.9096 18.6555C22.7045 18.4395 22.7814 18.2234 22.9481 18.0201C23.6019 17.2322 24.4481 17.0543 25.4096 17.2195C25.7557 17.283 26.0763 17.4101 26.3968 17.5499C26.666 17.677 26.9352 17.7786 27.2686 17.7151C27.5763 17.6516 27.6916 17.8676 27.5634 18.1472C27.3711 18.5793 26.8455 18.7826 26.2429 18.6555C25.9865 18.592 25.7558 18.4649 25.4224 18.503Z" fill="white"/>
<path d="M21.872 25.2383C21.8976 25.2383 21.9361 25.251 21.9617 25.251C22.2822 25.2255 22.654 25.1493 22.7181 25.5941C22.7694 25.9881 22.4104 26.0389 22.1284 26.1533C21.6027 26.3566 21.0643 26.2931 20.5258 26.3185C20.4745 26.3058 20.4232 26.3185 20.3976 26.3693C19.9104 26.6108 19.4232 26.6616 18.9489 26.3566C18.795 26.2677 18.6412 26.3058 18.4873 26.3058C17.9489 26.3185 17.4361 26.2676 16.9489 26.0516C16.7181 25.9499 16.5514 25.8101 16.6284 25.5433C16.6925 25.3018 16.872 25.2001 17.1412 25.2255C17.6668 25.2764 18.1925 25.1874 18.7181 25.1874C19.3591 25.1874 20.013 25.2001 20.654 25.1874C21.0386 25.1747 21.4617 25.3018 21.872 25.2383Z" fill="white"/>
<path d="M18.2562 22.1247C18.2819 22.0993 18.3075 22.0739 18.3332 22.0485C18.628 21.8833 18.8973 21.9087 19.1665 22.1374C19.4998 22.417 19.8716 22.417 20.205 22.1247C20.5255 21.8579 20.8332 21.8197 21.128 22.1629C21.3588 22.4297 21.2691 22.7856 20.9229 23.0652C20.1921 23.637 19.2306 23.6498 18.4998 23.1033C18.128 22.8237 18.0126 22.5187 18.2562 22.1247Z" fill="white"/>
<path d="M20.4227 28.1739C19.8714 28.3646 19.3329 28.3392 18.8073 28.1104C18.5637 27.8817 18.397 27.6148 18.6022 27.2844C18.8073 26.9539 19.1022 26.9285 19.4355 27.081C19.7047 27.2081 19.9227 27.0937 20.1534 26.9921C20.615 27.081 20.8842 27.3098 20.7945 27.8181C20.6663 27.9198 20.5381 28.0469 20.4227 28.1739Z" fill="white"/>
</g>
<defs>
<clipPath id="clip0">
<rect width="38" height="48" fill="white" transform="translate(0 0.457031)"/>
</clipPath>
</defs>
</svg>
